# xmcd
#
# Track frame offsets:
#	150
#	10087
#	21632
#	33352
#	44255
#	55235
#	65285
#	76512
#	87120
#	97617
#	106020
#	117187
#	126750
#	138845
#	150012
#	159922
#	171247
#	181570
#	192605
#	204867
#	216862
#	228115
#	248477
#	258860
#	270135
#	280657
#	291345
#	301612
#	311057
#	323897
#	334957
#
# Disc length: 4626 seconds
#
# Revision: 1
# Processed by: cddbd v1.5.2PL0 Copyright (c) Steve Scherf et al.
# Submitted via: EasyCDDAExtractor 8.2.3.1
#
DISCID=7f12101f
DTITLE=Stonewall Jackson - Waterloo Cd 1
DYEAR=1900
DGENRE=Country
TTITLE0=Knock Off Your Naggin' 
TTITLE1=A Broken Heart  A Wedding Band 
TTITLE2=Don't Be Angry 
TTITLE3=(You're Right) I Need You Real Bad 
TTITLE4=Tears On Her Bridal Bouquet 
TTITLE5=Grieving In My Heart 
TTITLE6=Gettin' Older 
TTITLE7=I Can't Go On Living This Way 
TTITLE8=She's A Honky-Tonk Girl 
TTITLE9=Why I'm Walkin' 
TTITLE10=Life To Go 
TTITLE11=Misery Known As Heartache 
TTITLE12=Smoke Along The Track 
TTITLE13=Waterloo 
TTITLE14=Ward Of Broken Hearts 
TTITLE15=Run 
TTITLE16=Uncle Sam And Big John Bull 
TTITLE17=Mary Don't You Weep 
TTITLE18=Man Has Cried 
TTITLE19=Let's Call It A Day 
TTITLE20=The Carpet On The Floor 
TTITLE21=Black Sheep 
TTITLE22=Why I'm Walkin' 
TTITLE23=Life To Go 
TTITLE24=Just A Rollin' Stone 
TTITLE25=Life Of A Poor Boy 
TTITLE26=Igmoo (The Pride Of South Central High) 
TTITLE27=Uncle Sam And Big John Bull 
TTITLE28=Thirty Links Of Chain 
TTITLE29=Sixteen Fathoms 
TTITLE30=A Little Guy Called Joe 
EXTD=
EXTT0=
EXTT1=
EXTT2=
EXTT3=
EXTT4=
EXTT5=
EXTT6=
EXTT7=
EXTT8=
EXTT9=
EXTT10=
EXTT11=
EXTT12=
EXTT13=
EXTT14=
EXTT15=
EXTT16=
EXTT17=
EXTT18=
EXTT19=
EXTT20=
EXTT21=
EXTT22=
EXTT23=
EXTT24=
EXTT25=
EXTT26=
EXTT27=
EXTT28=
EXTT29=
EXTT30=
PLAYORDER=
